<svg width="24" height="24" viewBox="0 0 24 24" fill="none" xmlns="http://www.w3.org/2000/svg">
<path fill-rule="evenodd" clip-rule="evenodd" d="M12 8.66667C9.69881 8.66667 7.83333 10.5322 7.83333 12.8333C7.83333 15.1345 9.69881 17 12 17C14.3012 17 16.1667 15.1345 16.1667 12.8333C16.1667 10.5322 14.3012 8.66667 12 8.66667ZM9.5 12.8333C9.5 11.4526 10.6193 10.3333 12 10.3333C13.3807 10.3333 14.5 11.4526 14.5 12.8333C14.5 14.2141 13.3807 15.3333 12 15.3333C10.6193 15.3333 9.5 14.2141 9.5 12.8333Z" fill="black"/>
<path fill-rule="evenodd" clip-rule="evenodd" d="M9.5 3.66667C9.22137 3.66667 8.96118 3.80592 8.80662 4.03775L7.38735 6.16667H4.5C3.83696 6.16667 3.20107 6.43006 2.73223 6.8989C2.26339 7.36775 2 8.00363 2 8.66667V17.8333C2 18.4964 2.26339 19.1323 2.73223 19.6011C3.20107 20.0699 3.83696 20.3333 4.5 20.3333H19.5C20.163 20.3333 20.7989 20.0699 21.2678 19.6011C21.7366 19.1323 22 18.4964 22 17.8333V8.66667C22 8.00363 21.7366 7.36775 21.2678 6.8989C20.7989 6.43006 20.163 6.16667 19.5 6.16667H16.6127L15.1934 4.03775C15.0388 3.80592 14.7786 3.66667 14.5 3.66667H9.5ZM8.52671 7.46226L9.94599 5.33334H14.054L15.4733 7.46226C15.6278 7.69409 15.888 7.83334 16.1667 7.83334H19.5C19.721 7.83334 19.933 7.92114 20.0893 8.07742C20.2455 8.2337 20.3333 8.44566 20.3333 8.66667V17.8333C20.3333 18.0544 20.2455 18.2663 20.0893 18.4226C19.933 18.5789 19.721 18.6667 19.5 18.6667H4.5C4.27899 18.6667 4.06702 18.5789 3.91074 18.4226C3.75446 18.2663 3.66667 18.0544 3.66667 17.8333V8.66667C3.66667 8.44566 3.75446 8.2337 3.91074 8.07742C4.06702 7.92114 4.27899 7.83334 4.5 7.83334H7.83333C8.11196 7.83334 8.37215 7.69409 8.52671 7.46226Z" fill="black"/>
</svg>
