<svg width="24" height="24" viewBox="0 0 24 24" fill="none" xmlns="http://www.w3.org/2000/svg">
<path fill-rule="evenodd" clip-rule="evenodd" d="M2.83333 1.91667C2.3731 1.91667 2 2.28977 2 2.75C2 3.21024 2.3731 3.58334 2.83333 3.58334H5.48359L6.17662 7.0459C6.18032 7.06961 6.18501 7.093 6.19066 7.116L7.58263 14.0707C7.69705 14.6459 8.0102 15.1633 8.46706 15.531C8.92183 15.8971 9.49031 16.0925 10.0739 16.0833H18.1595C18.743 16.0925 19.3115 15.8971 19.7663 15.531C20.2233 15.1631 20.5364 14.6462 20.6507 14.0707L20.6519 14.0644L21.9852 7.07277C22.0318 6.82882 21.967 6.57682 21.8087 6.38546C21.6504 6.19411 21.415 6.08334 21.1667 6.08334H7.68369L6.98379 2.58646C6.90584 2.19699 6.56385 1.91667 6.16666 1.91667H2.83333ZM8.01727 7.75H20.1594L19.0154 13.7487C18.9769 13.9394 18.8728 14.1107 18.7211 14.2328C18.5688 14.3554 18.3782 14.4206 18.1826 14.4168L18.1667 14.4167H10.0667L10.0507 14.4168C9.85515 14.4206 9.66452 14.3554 9.51217 14.2328C9.35982 14.1101 9.25546 13.9378 9.21736 13.746L8.01727 7.75Z" fill="black"/>
<path d="M7.83333 19.4167C7.83333 18.4962 8.57952 17.75 9.5 17.75C10.4205 17.75 11.1667 18.4962 11.1667 19.4167C11.1667 20.3371 10.4205 21.0833 9.5 21.0833C8.57952 21.0833 7.83333 20.3371 7.83333 19.4167Z" fill="black"/>
<path d="M17 19.4167C17 18.4962 17.7462 17.75 18.6667 17.75C19.5871 17.75 20.3333 18.4962 20.3333 19.4167C20.3333 20.3371 19.5871 21.0833 18.6667 21.0833C17.7462 21.0833 17 20.3371 17 19.4167Z" fill="black"/>
</svg>
