<svg width="24" height="24" viewBox="0 0 24 24" fill="none" xmlns="http://www.w3.org/2000/svg">
<path fill-rule="evenodd" clip-rule="evenodd" d="M12 6.9999C10.159 6.9999 8.66662 8.49231 8.66662 10.3333C8.66662 12.1743 10.159 13.6667 12 13.6667C13.841 13.6667 15.3334 12.1743 15.3334 10.3333C15.3334 8.49231 13.841 6.9999 12 6.9999ZM10.3333 10.3333C10.3333 9.4128 11.0795 8.66659 12 8.66659C12.9205 8.66659 13.6667 9.4128 13.6667 10.3333C13.6667 11.2538 12.9205 12 12 12C11.0795 12 10.3333 11.2538 10.3333 10.3333Z" fill="black"/>
<path fill-rule="evenodd" clip-rule="evenodd" d="M11.5373 21.8599C11.5375 21.86 11.5377 21.8602 12 21.1668L11.5373 21.8599C11.8172 22.0465 12.1823 22.0468 12.4623 21.8602L12 21.1668C12.4623 21.8602 12.462 21.8603 12.4623 21.8602L12.4651 21.8583L12.4707 21.8546L12.4897 21.8417C12.506 21.8306 12.5291 21.8148 12.5587 21.7943C12.6179 21.7533 12.703 21.6936 12.8102 21.6161C13.0246 21.4613 13.3281 21.2353 13.691 20.9463C14.4156 20.3693 15.3839 19.5358 16.355 18.5107C18.2632 16.4965 20.3335 13.585 20.3335 10.3333C20.3335 8.12311 19.4555 6.00346 17.8927 4.44063C16.3298 2.87781 14.2102 1.99982 12 1.99982C9.78983 1.99982 7.67018 2.87781 6.10735 4.44063C4.54452 6.00346 3.66653 8.12311 3.66653 10.3333C3.66653 13.585 5.73679 16.4965 7.64497 18.5107C8.61611 19.5358 9.58441 20.3693 10.309 20.9463C10.672 21.2353 10.9754 21.4613 11.1898 21.6161C11.297 21.6936 11.3821 21.7533 11.4413 21.7943C11.4709 21.8148 11.494 21.8306 11.5103 21.8417L11.5294 21.8546L11.5349 21.8583L11.5373 21.8599ZM7.28588 5.61916C8.53615 4.3689 10.2319 3.66651 12 3.66651C13.7681 3.66651 15.4639 4.3689 16.7141 5.61916C17.9644 6.86943 18.6668 8.56515 18.6668 10.3333C18.6668 12.915 16.987 15.4202 15.1451 17.3645C14.2412 18.3186 13.3345 19.0997 12.6528 19.6425C12.3991 19.8445 12.1775 20.0128 12 20.1439C11.8225 20.0128 11.6009 19.8445 11.3472 19.6425C10.6655 19.0997 9.75881 18.3186 8.85491 17.3645C7.01304 15.4202 5.33323 12.915 5.33323 10.3333C5.33323 8.56515 6.03562 6.86943 7.28588 5.61916Z" fill="black"/>
</svg>
