<svg width="24" height="24" viewBox="0 0 24 24" fill="none" xmlns="http://www.w3.org/2000/svg">
<path fill-rule="evenodd" clip-rule="evenodd" d="M6.54548 10.1818V7.45455C6.54548 6.00791 7.12016 4.62053 8.14308 3.5976C9.16601 2.57467 10.5534 2 12 2C13.4467 2 14.834 2.57467 15.857 3.5976C16.8799 4.62053 17.4546 6.00791 17.4546 7.45455V10.1818H18.3637C19.8699 10.1818 21.0909 11.4029 21.0909 12.9091V19.2727C21.0909 20.779 19.8699 22 18.3637 22H5.63639C4.13016 22 2.90912 20.779 2.90912 19.2727V12.9091C2.90912 11.4029 4.13016 10.1818 5.63639 10.1818H6.54548ZM9.42873 4.88325C10.1107 4.2013 11.0356 3.81818 12 3.81818C12.9645 3.81818 13.8894 4.2013 14.5713 4.88325C15.2533 5.5652 15.6364 6.49012 15.6364 7.45455V10.1818H8.36366V7.45455C8.36366 6.49012 8.74678 5.5652 9.42873 4.88325ZM5.63639 12C5.13431 12 4.7273 12.407 4.7273 12.9091V19.2727C4.7273 19.7748 5.13431 20.1818 5.63639 20.1818H18.3637C18.8657 20.1818 19.2728 19.7748 19.2728 19.2727V12.9091C19.2728 12.407 18.8657 12 18.3637 12H5.63639Z" fill="black"/>
</svg>
