<svg width="24" height="24" viewBox="0 0 24 24" fill="none" xmlns="http://www.w3.org/2000/svg">
<path d="M20.4579 4.93449C19.9692 4.44559 19.389 4.05776 18.7504 3.79316C18.1118 3.52856 17.4274 3.39236 16.7361 3.39236C16.0449 3.39236 15.3604 3.52856 14.7218 3.79316C14.0832 4.05776 13.503 4.44559 13.0143 4.93449L12.0002 5.94866L10.986 4.93449C9.99891 3.94741 8.66014 3.39288 7.2642 3.39288C5.86826 3.39288 4.52949 3.94741 3.54241 4.93449C2.55533 5.92157 2.00079 7.26034 2.00079 8.65628C2.00079 10.0522 2.55533 11.391 3.54241 12.3781L12.0002 20.8358L20.4579 12.3781C20.9468 11.8894 21.3346 11.3092 21.5992 10.6706C21.8638 10.032 22 9.34753 22 8.65628C22 7.96503 21.8638 7.28056 21.5992 6.64197C21.3346 6.00337 20.9468 5.42316 20.4579 4.93449Z" stroke="black" stroke-width="2" stroke-linecap="round" stroke-linejoin="round"/>
</svg>
