<svg width="24" height="24" viewBox="0 0 24 24" fill="none" xmlns="http://www.w3.org/2000/svg">
<path d="M21.3036 4.21648C20.7661 3.67869 20.1279 3.25207 19.4254 2.961C18.7229 2.66994 17.97 2.52013 17.2096 2.52013C16.4493 2.52013 15.6963 2.66994 14.9939 2.961C14.2914 3.25207 13.6532 3.67869 13.1156 4.21648L12 5.33207L10.8845 4.21648C9.79866 3.13068 8.32601 2.52069 6.79046 2.52069C5.25491 2.52069 3.78226 3.13068 2.69646 4.21648C1.61067 5.30227 1.00067 6.77493 1.00067 8.31048C1.00067 9.84602 1.61067 11.3187 2.69646 12.4045L12 21.7081L21.3036 12.4045C21.8414 11.8669 22.268 11.2287 22.5591 10.5262C22.8502 9.82378 23 9.07085 23 8.31048C23 7.5501 22.8502 6.79717 22.5591 6.09471C22.268 5.39225 21.8414 4.75402 21.3036 4.21648Z" fill="black"/>
</svg>
