<svg width="24" height="24" viewBox="0 0 24 24" fill="none" xmlns="http://www.w3.org/2000/svg">
<path fill-rule="evenodd" clip-rule="evenodd" d="M2.00006 6.52972C1.99991 6.53869 1.9999 6.54766 2.00002 6.55662V17.4545C2.00002 18.9566 3.22521 20.1818 4.72728 20.1818H19.2727C20.7747 20.1818 21.9999 18.9566 21.9999 17.4545V6.55672C22 6.54768 22 6.53863 21.9999 6.52958C21.9913 5.03478 20.7694 3.81822 19.2727 3.81822H4.72728C3.23047 3.81822 2.0086 5.03485 2.00006 6.52972ZM3.91508 6.13998C4.06542 5.84269 4.37459 5.6364 4.72728 5.6364H19.2727C19.6254 5.6364 19.9345 5.84269 20.0849 6.13998L12 11.7994L3.91508 6.13998ZM20.1818 8.29153V17.4545C20.1818 17.9524 19.7706 18.3636 19.2727 18.3636H4.72728C4.22936 18.3636 3.81819 17.9524 3.81819 17.4545V8.29153L11.4786 13.6538C11.7917 13.873 12.2083 13.873 12.5213 13.6538L20.1818 8.29153Z" fill="black"/>
</svg>
