<svg width="24" height="24" viewBox="0 0 24 24" fill="none" xmlns="http://www.w3.org/2000/svg">
<path fill-rule="evenodd" clip-rule="evenodd" d="M2 7C2 5.61929 3.11929 4.5 4.5 4.5H19.5C20.8807 4.5 22 5.61929 22 7V17C22 18.3807 20.8807 19.5 19.5 19.5H4.5C3.11929 19.5 2 18.3807 2 17V7ZM3.66667 7C3.66667 6.53976 4.03976 6.16667 4.5 6.16667H19.5C19.9602 6.16667 20.3333 6.53976 20.3333 7V9.5H3.66667V7ZM20.3333 11.1667V17C20.3333 17.4602 19.9602 17.8333 19.5 17.8333H4.5C4.03976 17.8333 3.66667 17.4602 3.66667 17V11.1667H20.3333Z" fill="black"/>
</svg>
