<svg width="24" height="24" viewBox="0 0 24 24" fill="none" xmlns="http://www.w3.org/2000/svg">
<path d="M2.81631 21.5918V2.40816C2.81631 2.28912 2.86734 2.20833 2.96938 2.16582C3.07142 2.1233 3.16495 2.14456 3.24999 2.22959L3.98978 2.96939C4.09182 3.07143 4.21087 3.12245 4.34693 3.12245C4.48298 3.12245 4.60203 3.07143 4.70407 2.96939L5.5204 2.15306C5.62244 2.05102 5.74148 2 5.87754 2C6.01359 2 6.13264 2.05102 6.23468 2.15306L7.05101 2.96939C7.15305 3.07143 7.2721 3.12245 7.40815 3.12245C7.54421 3.12245 7.66325 3.07143 7.76529 2.96939L8.58162 2.15306C8.68366 2.05102 8.80271 2 8.93876 2C9.07482 2 9.19386 2.05102 9.29591 2.15306L10.1122 2.96939C10.2143 3.07143 10.3333 3.12245 10.4694 3.12245C10.6054 3.12245 10.7245 3.07143 10.8265 2.96939L11.6428 2.15306C11.7449 2.05102 11.8639 2 12 2C12.136 2 12.2551 2.05102 12.3571 2.15306L13.1735 2.96939C13.2755 3.07143 13.3945 3.12245 13.5306 3.12245C13.6667 3.12245 13.7857 3.07143 13.8877 2.96939L14.7041 2.15306C14.8061 2.05102 14.9252 2 15.0612 2C15.1973 2 15.3163 2.05102 15.4184 2.15306L16.2347 2.96939C16.3367 3.07143 16.4558 3.12245 16.5918 3.12245C16.7279 3.12245 16.8469 3.07143 16.949 2.96939L17.7653 2.15306C17.8673 2.05102 17.9864 2 18.1224 2C18.2585 2 18.3775 2.05102 18.4796 2.15306L19.2959 2.96939C19.3979 3.07143 19.517 3.12245 19.653 3.12245C19.7891 3.12245 19.9081 3.07143 20.0102 2.96939L20.75 2.22959C20.835 2.14456 20.9286 2.1233 21.0306 2.16582C21.1326 2.20833 21.1837 2.28912 21.1837 2.40816V21.5918C21.1837 21.7109 21.1326 21.7917 21.0306 21.8342C20.9286 21.8767 20.835 21.8554 20.75 21.7704L20.0102 21.0306C19.9081 20.9286 19.7891 20.8775 19.653 20.8775C19.517 20.8775 19.3979 20.9286 19.2959 21.0306L18.4796 21.8469C18.3775 21.949 18.2585 22 18.1224 22C17.9864 22 17.8673 21.949 17.7653 21.8469L16.949 21.0306C16.8469 20.9286 16.7279 20.8775 16.5918 20.8775C16.4558 20.8775 16.3367 20.9286 16.2347 21.0306L15.4184 21.8469C15.3163 21.949 15.1973 22 15.0612 22C14.9252 22 14.8061 21.949 14.7041 21.8469L13.8877 21.0306C13.7857 20.9286 13.6667 20.8775 13.5306 20.8775C13.3945 20.8775 13.2755 20.9286 13.1735 21.0306L12.3571 21.8469C12.2551 21.949 12.136 22 12 22C11.8639 22 11.7449 21.949 11.6428 21.8469L10.8265 21.0306C10.7245 20.9286 10.6054 20.8775 10.4694 20.8775C10.3333 20.8775 10.2143 20.9286 10.1122 21.0306L9.29591 21.8469C9.19386 21.949 9.07482 22 8.93876 22C8.80271 22 8.68366 21.949 8.58162 21.8469L7.76529 21.0306C7.66325 20.9286 7.54421 20.8775 7.40815 20.8775C7.2721 20.8775 7.15305 20.9286 7.05101 21.0306L6.23468 21.8469C6.13264 21.949 6.01359 22 5.87754 22C5.74148 22 5.62244 21.949 5.5204 21.8469L4.70407 21.0306C4.60203 20.9286 4.48298 20.8775 4.34693 20.8775C4.21087 20.8775 4.09182 20.9286 3.98978 21.0306L3.24999 21.7704C3.16495 21.8554 3.07142 21.8767 2.96938 21.8342C2.86734 21.7917 2.81631 21.7109 2.81631 21.5918ZM6.89795 17.102H17.102C17.3911 17.102 17.6335 17.0043 17.8291 16.8087C18.0246 16.6131 18.1224 16.3707 18.1224 16.0816C18.1224 15.7925 18.0246 15.5502 17.8291 15.3546C17.6335 15.159 17.3911 15.0612 17.102 15.0612H6.89795C6.60883 15.0612 6.36648 15.159 6.17091 15.3546C5.97533 15.5502 5.87754 15.7925 5.87754 16.0816C5.87754 16.3707 5.97533 16.6131 6.17091 16.8087C6.36648 17.0043 6.60883 17.102 6.89795 17.102ZM6.89795 13.0204H17.102C17.3911 13.0204 17.6335 12.9226 17.8291 12.727C18.0246 12.5315 18.1224 12.2891 18.1224 12C18.1224 11.7109 18.0246 11.4685 17.8291 11.273C17.6335 11.0774 17.3911 10.9796 17.102 10.9796H6.89795C6.60883 10.9796 6.36648 11.0774 6.17091 11.273C5.97533 11.4685 5.87754 11.7109 5.87754 12C5.87754 12.2891 5.97533 12.5315 6.17091 12.727C6.36648 12.9226 6.60883 13.0204 6.89795 13.0204ZM6.89795 8.93877H17.102C17.3911 8.93877 17.6335 8.84099 17.8291 8.64541C18.0246 8.44983 18.1224 8.20748 18.1224 7.91837C18.1224 7.62925 18.0246 7.3869 17.8291 7.19133C17.6335 6.99575 17.3911 6.89796 17.102 6.89796H6.89795C6.60883 6.89796 6.36648 6.99575 6.17091 7.19133C5.97533 7.3869 5.87754 7.62925 5.87754 7.91837C5.87754 8.20748 5.97533 8.44983 6.17091 8.64541C6.36648 8.84099 6.60883 8.93877 6.89795 8.93877ZM4.85713 19.2449H19.1428V4.7551H4.85713V19.2449Z" fill="black"/>
</svg>
