<svg width="14" height="14" viewBox="0 0 14 14" fill="none" xmlns="http://www.w3.org/2000/svg">
<path d="M6.06293 1.51511C6.38626 0.647287 7.61374 0.647285 7.93707 1.51511L8.98488 4.32741C9.12527 4.70423 9.47772 4.9603 9.87948 4.97738L12.8779 5.10485C13.8032 5.14418 14.1825 6.31159 13.4571 6.88727L11.1062 8.75284C10.7912 9.0028 10.6566 9.41713 10.7645 9.8045L11.5698 12.6956C11.8183 13.5877 10.8253 14.3092 10.0536 13.7972L7.55289 12.1379C7.21782 11.9155 6.78218 11.9155 6.44711 12.1379L3.94639 13.7972C3.17471 14.3092 2.18165 13.5877 2.43017 12.6956L3.23551 9.8045C3.34342 9.41713 3.20879 9.0028 2.8938 8.75284L0.542931 6.88727C-0.182503 6.31159 0.196809 5.14418 1.12207 5.10485L4.12052 4.97738C4.52228 4.9603 4.87473 4.70423 5.01512 4.32741L6.06293 1.51511Z" fill="#EBB65B"/>
</svg>
