<svg width="57" height="56" viewBox="0 0 57 56" fill="none" xmlns="http://www.w3.org/2000/svg">
<circle cx="28.5" cy="28" r="28" fill="#156651" fill-opacity="0.1"/>
<path d="M28.4998 14.6667C21.1532 14.6667 15.1665 20.6533 15.1665 28C15.1665 35.3467 21.1532 41.3333 28.4998 41.3333C35.8465 41.3333 41.8332 35.3467 41.8332 28C41.8332 20.6533 35.8465 14.6667 28.4998 14.6667ZM34.8732 24.9333L27.3132 32.4933C27.1265 32.68 26.8732 32.7867 26.6065 32.7867C26.3398 32.7867 26.0865 32.68 25.8998 32.4933L22.1265 28.72C21.7398 28.3333 21.7398 27.6933 22.1265 27.3067C22.5132 26.92 23.1532 26.92 23.5398 27.3067L26.6065 30.3733L33.4598 23.52C33.8465 23.1333 34.4865 23.1333 34.8732 23.52C35.2598 23.9067 35.2598 24.5333 34.8732 24.9333Z" fill="#156651"/>
</svg>
