<svg width="24" height="24" viewBox="0 0 24 24" fill="none" xmlns="http://www.w3.org/2000/svg">
<path d="M12 10.775L8.10005 14.675C7.91672 14.8583 7.68338 14.95 7.40005 14.95C7.11672 14.95 6.88338 14.8583 6.70005 14.675C6.51672 14.4917 6.42505 14.2583 6.42505 13.975C6.42505 13.6917 6.51672 13.4583 6.70005 13.275L11.3 8.675C11.4 8.575 11.5084 8.50417 11.625 8.4625C11.7417 8.42083 11.8667 8.4 12 8.4C12.1334 8.4 12.2584 8.42083 12.375 8.4625C12.4917 8.50417 12.6 8.575 12.7 8.675L17.3 13.275C17.4834 13.4583 17.575 13.6917 17.575 13.975C17.575 14.2583 17.4834 14.4917 17.3 14.675C17.1167 14.8583 16.8834 14.95 16.6 14.95C16.3167 14.95 16.0834 14.8583 15.9 14.675L12 10.775Z" fill="black"/>
</svg>
